<?xml version="1.0" encoding="UTF-8" standalone="no"?>
<!-- Created with Inkscape (http://www.inkscape.org/) -->

<svg
   xmlns:dc="http://purl.org/dc/elements/1.1/"
   xmlns:cc="http://creativecommons.org/ns#"
   xmlns:rdf="http://www.w3.org/1999/02/22-rdf-syntax-ns#"
   xmlns:svg="http://www.w3.org/2000/svg"
   xmlns="http://www.w3.org/2000/svg"
   xmlns:sodipodi="http://sodipodi.sourceforge.net/DTD/sodipodi-0.dtd"
   xmlns:inkscape="http://www.inkscape.org/namespaces/inkscape"
   id="svg2"
   version="1.1"
   inkscape:version="0.91 r13725"
   xml:space="preserve"
   width="71.772026"
   height="71.772026"
   viewBox="0 0 71.772026 71.772026"
   sodipodi:docname="logo_sombra_bi.svg"><metadata
     id="metadata8"><rdf:RDF><cc:Work
         rdf:about=""><dc:format>image/svg+xml</dc:format><dc:type
           rdf:resource="http://purl.org/dc/dcmitype/StillImage" /><dc:title></dc:title></cc:Work></rdf:RDF></metadata><defs
     id="defs6"><clipPath
       clipPathUnits="userSpaceOnUse"
       id="clipPath20"><path
         d="m 0,76.535 155.906,0 L 155.906,0 0,0 0,76.535 Z"
         id="path22"
         inkscape:connector-curvature="0" /></clipPath></defs><sodipodi:namedview
     pagecolor="#ffffff"
     bordercolor="#666666"
     borderopacity="1"
     objecttolerance="10"
     gridtolerance="10"
     guidetolerance="10"
     inkscape:pageopacity="0"
     inkscape:pageshadow="2"
     inkscape:window-width="1353"
     inkscape:window-height="710"
     id="namedview4"
     showgrid="false"
     inkscape:zoom="1.6676715"
     inkscape:cx="8.5780853"
     inkscape:cy="20.825374"
     inkscape:window-x="163"
     inkscape:window-y="92"
     inkscape:window-maximized="0"
     inkscape:current-layer="g10"
     fit-margin-top="0"
     fit-margin-left="0"
     fit-margin-right="0"
     fit-margin-bottom="0" /><g
     id="g10"
     inkscape:groupmode="layer"
     inkscape:label="logos (3)"
     transform="matrix(1.25,0,0,-1.25,-4.555625,85.276651)"><g
       id="g16"><g
         id="g18"
         clip-path="url(#clipPath20)"><g
           id="g32"
           transform="translate(23.2185,28.529)"><path
             d="m 0,0 c 0.006,0 0.487,-0.103 1.22,-0.103 l 14.853,0 -6.316,17.351 C 9.081,18.522 7.75,18.608 7.359,18.594 6.952,18.586 5.579,18.455 4.976,17.07 L -1.39,2.459 C -1.425,2.377 -1.458,2.291 -1.484,2.204 -1.617,1.774 -1.586,1.392 -1.39,1.034 -1.128,0.554 -0.608,0.168 0,0 Z m 9.614,-11.662 c 2.612,-0.046 5,1.156 6.417,3.205 0.582,0.841 0.961,1.762 1.132,2.712 -0.317,-0.013 -0.64,-0.019 -0.968,-0.019 l -14.975,0 c -1.539,0 -2.541,0.255 -2.726,0.307 -2.083,0.574 -3.852,1.949 -4.85,3.772 -0.93,1.699 -1.122,3.674 -0.538,5.56 0.087,0.28 0.191,0.562 0.313,0.842 l 6.367,14.614 c 1.296,2.978 4.16,4.864 7.472,4.923 3.311,0.04 6.25,-1.727 7.656,-4.663 l 0.107,-0.254 6.661,-18.298 c 3.47,1.867 3.47,5.508 3.47,6.971 0,8.718 -7.179,21.021 -14.494,24.84 -3.192,1.666 -6.01,1.595 -8.612,-0.218 -6.278,-4.374 -15.959,-21.847 -15.959,-36.099 l 0,-1.459 c 0.303,-3.662 3.527,-6.675 7.228,-6.736 l 16.299,0 z m 0.178,-5.663 c -0.075,0 -0.149,10e-4 -0.225,0.002 l -16.298,0 c -6.754,0.11 -12.373,5.422 -12.837,12.093 l -0.006,0.197 0,1.566 c 0,15.474 10.057,34.942 18.383,40.744 4.31,3.003 9.448,3.212 14.469,0.592 C 23.314,32.63 30.814,17.784 30.814,8.01 c 0,-6.231 -2.852,-10.648 -7.887,-12.62 -0.015,-2.475 -0.772,-4.946 -2.239,-7.068 -2.453,-3.547 -6.513,-5.647 -10.896,-5.647"
             style="fill:#bf396a;fill-opacity:1;fill-rule:nonzero;stroke:none"
             id="path34"
             inkscape:connector-curvature="0" /></g><g
           id="g36"
           transform="translate(39.7263,20.7626)"><path
             d="M 0,0 C 2.284,0.036 4.372,0.37 6.241,0.975 6.37,1.704 6.427,2.441 6.425,3.179 4.733,2.525 2.805,2.14 0.661,2.044 0.546,1.342 0.327,0.655 0,0"
             style="fill:#9b214b;fill-opacity:1;fill-rule:nonzero;stroke:none"
             id="path38"
             inkscape:connector-curvature="0" /></g><g
           id="g40"
           transform="translate(44.9015,29.5502)"><path
             d="M 0,0 -0.695,1.909 C -1.787,1.278 -3.342,0.896 -5.582,0.896 l -0.765,0 0.736,-2.02 0.029,0 c 2.448,0 4.249,0.44 5.582,1.124"
             style="fill:#9b214b;fill-opacity:1;fill-rule:nonzero;stroke:none"
             id="path42"
             inkscape:connector-curvature="0" /></g></g></g></g></svg>